<svg xmlns="http://www.w3.org/2000/svg" width="100" height="47" fill="none">
  <path fill="#BFDBCC" d="m1.142 10.557 3.213-5.24-.9-.266.788-1.285.9.265.305-.537c.773-1.368 1.89-1.836 3.349-1.405.546.161.987.38 1.325.654l-.763 1.249a2.66 2.66 0 0 0-.93-.508c-.6-.177-1.087.039-1.462.648l-.226.371 1.96.58-.788 1.285-1.934-.571-3.212 5.24-1.625-.48Zm7.688 4.344c-1.226-1.812-1.569-3.636-1.027-5.47.426-1.442 1.27-2.619 2.532-3.53 1.273-.919 2.867-1.47 4.78-1.654l.234 1.383c-1.582.214-2.874.703-3.879 1.467-1.004.764-1.666 1.688-1.986 2.771-.38 1.29-.167 2.724.64 4.306L8.83 14.9Zm2.515-1.33 4.703-2.626-.635-3.88 1.746.515.336 2.567 2.765-1.65 1.96.578-4.488 2.543.636 4.027-1.746-.515-.347-2.73-2.956 1.754-1.974-.583Zm7.55 4.259-.235-1.383c1.582-.214 2.875-.704 3.879-1.468s1.666-1.688 1.986-2.77c.383-1.298.164-2.73-.658-4.297l1.312-.736c1.227 1.812 1.569 3.636 1.027 5.47-.426 1.442-1.276 2.621-2.55 3.54-1.264.92-2.851 1.468-4.762 1.644Zm14.065-4.02.847-1.385 6.284 1.855-.847 1.385-6.284-1.856Zm-1.89 3.09.846-1.384 6.284 1.856-.847 1.384-6.284-1.856Zm11.358 5.851 5.3-8.653 1.678.496.325 4.928 5.341-3.255 1.893.56-5.3 8.653-1.678-.496 3.803-6.205-5.444 3.21-.054-.016-.431-4.916-3.782 6.182-1.651-.488Zm11.75 3.471 5.3-8.653 1.665.492-5.3 8.653-1.665-.492Zm4.167 1.23 5.3-8.652 1.531.452 1.22 7.586 3.761-6.115 1.625.48-5.3 8.653-1.383-.408-1.271-7.806-3.845 6.295-1.638-.484Zm13.107 5.945c-1.226-1.812-1.568-3.636-1.026-5.47.425-1.442 1.27-2.619 2.531-3.53 1.274-.918 2.867-1.47 4.78-1.654l.234 1.383c-1.581.214-2.874.703-3.878 1.467-1.004.765-1.666 1.688-1.986 2.771-.381 1.29-.168 2.724.64 4.306l-1.295.727Zm3.362-1.08 5.3-8.653 6.901 2.038-.839 1.358-5.25-1.55-1.383 2.262 4.659 1.376-.835 1.345-4.66-1.376-1.416 2.326 5.33 1.574-.839 1.358-6.968-2.058Zm8.246 2.435.759-1.235 6.07-2.12c.608-.21 1.073-.432 1.395-.668.323-.235.533-.519.631-.85.106-.358.06-.678-.14-.96-.19-.28-.504-.485-.942-.615-.77-.227-1.682-.054-2.737.52l-.721-1.366c1.337-.802 2.658-1.01 3.965-.624.913.27 1.583.72 2.01 1.352.428.623.535 1.302.318 2.036a2.767 2.767 0 0 1-.94 1.401c-.46.37-1.16.718-2.103 1.043l-4.237 1.493 4.39 1.297-.817 1.335-6.901-2.038Zm11.613-2.277 1.04-1.693 1.786.527-1.04 1.693-1.786-.527Zm-2.96 4.833 1.04-1.693 1.785.528-1.04 1.693-1.785-.528Zm4.08 1.205 5.3-8.653 6.901 2.039-.839 1.358-5.249-1.551-1.384 2.263 4.659 1.376-.835 1.344-4.66-1.376-1.416 2.326 5.33 1.575-.839 1.358-6.968-2.059Zm11.935 3.686a4.488 4.488 0 0 1-1.835-1.053c-.522-.505-.873-1.046-1.053-1.625l1.463-.604c.417.96 1.082 1.575 1.995 1.845.645.19 1.23.168 1.757-.065.535-.232.877-.598 1.025-1.099.127-.43.06-.829-.201-1.198-.252-.366-.678-.638-1.277-.815-.484-.143-1.032-.164-1.646-.063l-.653-.952 2.788-4.052 5.518 1.63-.848 1.34-4.015-1.185-1.35 1.951c.436-.027.86.02 1.272.142.877.26 1.516.716 1.917 1.37.403.644.486 1.369.248 2.175-.28.948-.901 1.65-1.863 2.106-.962.456-2.043.506-3.242.152Zm4.103 3.08-.234-1.382c1.582-.215 2.875-.704 3.879-1.468s1.666-1.688 1.986-2.77c.384-1.299.164-2.73-.658-4.297l1.313-.736c1.226 1.812 1.568 3.635 1.026 5.47-.426 1.441-1.275 2.621-2.549 3.54-1.264.92-2.852 1.468-4.763 1.643Z"/>
</svg>
