<svg xmlns="http://www.w3.org/2000/svg" width="226" height="36" fill="none">
  <path stroke="#0F7C41" stroke-width=".4" d="M.2.2h225.6v35.6H.2z"/>
  <path fill="#0F7C41" d="M23.015 24.128a6.577 6.577 0 0 1-2.369-.416 5.806 5.806 0 0 1-1.872-1.2 5.797 5.797 0 0 1-1.232-1.824 5.733 5.733 0 0 1-.448-2.288c0-.832.15-1.595.448-2.288a5.49 5.49 0 0 1 1.248-1.808 5.47 5.47 0 0 1 1.873-1.2 6.36 6.36 0 0 1 2.367-.432c.864 0 1.66.15 2.384.448.736.288 1.36.72 1.872 1.296l-1.04 1.008a4.063 4.063 0 0 0-1.44-.992 4.376 4.376 0 0 0-1.712-.336c-.629 0-1.216.107-1.76.32a4.22 4.22 0 0 0-1.392.896 4.122 4.122 0 0 0-.927 1.376 4.488 4.488 0 0 0-.32 1.712c0 .619.106 1.195.32 1.728.223.523.533.976.927 1.36a4.22 4.22 0 0 0 1.392.896c.544.213 1.131.32 1.76.32.608 0 1.18-.107 1.712-.32a4.158 4.158 0 0 0 1.44-1.024l1.04 1.008a4.964 4.964 0 0 1-1.872 1.312c-.725.299-1.525.448-2.4.448ZM31.96 24v-7.536l.384.4h-3.488V15.52H36.6v1.344h-3.47l.367-.4V24H31.96Zm12.691 0v-1.792l-.08-.336v-3.056c0-.65-.192-1.152-.576-1.504-.373-.363-.938-.544-1.696-.544-.501 0-.992.085-1.472.256a3.69 3.69 0 0 0-1.216.656l-.64-1.152c.438-.352.96-.619 1.568-.8a6.494 6.494 0 0 1 1.936-.288c1.163 0 2.059.283 2.688.848.63.565.944 1.43.944 2.592V24h-1.456Zm-2.784.096c-.63 0-1.184-.107-1.664-.32-.47-.213-.832-.507-1.088-.88a2.284 2.284 0 0 1-.384-1.296c0-.459.107-.875.32-1.248.224-.373.581-.672 1.072-.896.502-.224 1.174-.336 2.016-.336h2.688v1.104h-2.624c-.768 0-1.285.128-1.552.384a1.24 1.24 0 0 0-.4.928c0 .416.166.752.496 1.008.33.245.79.368 1.376.368.576 0 1.078-.128 1.504-.384.438-.256.752-.63.944-1.12l.304 1.056c-.203.501-.56.901-1.072 1.2-.512.288-1.157.432-1.936.432Zm12.782 0c-.704 0-1.35-.16-1.936-.48-.576-.33-1.04-.816-1.392-1.456-.341-.64-.512-1.44-.512-2.4s.165-1.76.496-2.4c.341-.64.8-1.12 1.376-1.44a4.042 4.042 0 0 1 1.968-.48c.832 0 1.568.181 2.208.544a4 4 0 0 1 1.52 1.52c.373.64.56 1.392.56 2.256 0 .864-.187 1.621-.56 2.272a4 4 0 0 1-1.52 1.52c-.64.363-1.376.544-2.208.544Zm-4.496 3.008V15.52h1.472v2.288l-.096 1.968.16 1.968v5.36h-1.536Zm4.368-4.352a2.87 2.87 0 0 0 1.456-.368 2.597 2.597 0 0 0 1.024-1.04c.256-.459.384-.987.384-1.584 0-.608-.128-1.13-.384-1.568a2.597 2.597 0 0 0-1.024-1.04 2.868 2.868 0 0 0-1.456-.368c-.533 0-1.019.123-1.456.368a2.74 2.74 0 0 0-1.024 1.04c-.245.437-.368.96-.368 1.568 0 .597.123 1.125.368 1.584a2.74 2.74 0 0 0 1.024 1.04c.437.245.923.368 1.456.368ZM63.816 24v-7.536l.384.4h-3.488V15.52h7.744v1.344h-3.472l.368-.4V24h-1.536Zm7.827-6.368c-.299 0-.555-.101-.768-.304a1.085 1.085 0 0 1-.32-.8c0-.32.106-.581.32-.784.213-.203.47-.304.768-.304.288 0 .533.101.736.304.213.203.32.464.32.784s-.107.587-.32.8a1.002 1.002 0 0 1-.736.304Zm0 6.464c-.299 0-.555-.101-.768-.304a1.085 1.085 0 0 1-.32-.8c0-.32.106-.581.32-.784.213-.203.47-.304.768-.304.288 0 .533.101.736.304.213.203.32.464.32.784s-.107.587-.32.8a1.002 1.002 0 0 1-.736.304ZM82.653 24V13.76l1.12 1.12h-3.36V12.8h4.832V24h-2.592Zm10.617.192c-.917 0-1.738-.224-2.464-.672-.725-.459-1.296-1.12-1.712-1.984-.416-.864-.624-1.91-.624-3.136 0-1.227.208-2.272.624-3.136.416-.864.987-1.52 1.712-1.968.726-.459 1.547-.688 2.464-.688.928 0 1.75.23 2.464.688.726.448 1.296 1.104 1.712 1.968.416.864.624 1.91.624 3.136 0 1.227-.208 2.272-.624 3.136-.416.864-.986 1.525-1.712 1.984-.714.448-1.536.672-2.464.672Zm0-2.192c.438 0 .816-.123 1.136-.368.33-.245.587-.635.768-1.168.192-.533.288-1.221.288-2.064s-.096-1.53-.288-2.064c-.181-.533-.437-.923-.768-1.168a1.813 1.813 0 0 0-1.136-.368 1.86 1.86 0 0 0-1.136.368c-.32.245-.576.635-.768 1.168-.181.533-.272 1.221-.272 2.064s.09 1.53.272 2.064c.192.533.448.923.768 1.168.33.245.71.368 1.136.368Zm17.823 2.128c-.928 0-1.755-.187-2.48-.56a4.383 4.383 0 0 1-1.712-1.584c-.405-.672-.608-1.435-.608-2.288 0-.864.203-1.627.608-2.288a4.268 4.268 0 0 1 1.712-1.568c.725-.384 1.552-.576 2.48-.576.907 0 1.696.192 2.368.576a3.421 3.421 0 0 1 1.488 1.616l-1.936 1.04c-.224-.405-.507-.704-.848-.896a2.128 2.128 0 0 0-1.088-.288c-.427 0-.811.096-1.152.288a2.146 2.146 0 0 0-.816.816c-.192.352-.288.779-.288 1.28s.096.928.288 1.28c.203.352.475.624.816.816.341.192.725.288 1.152.288.395 0 .757-.09 1.088-.272.341-.192.624-.496.848-.912l1.936 1.056a3.521 3.521 0 0 1-1.488 1.616c-.672.373-1.461.56-2.368.56ZM117.73 24v-8.608h2.496V24h-2.496Zm1.248-9.808c-.459 0-.832-.133-1.12-.4a1.297 1.297 0 0 1-.432-.992c0-.395.144-.725.432-.992.288-.267.661-.4 1.12-.4.458 0 .832.128 1.12.384a1.2 1.2 0 0 1 .432.96c0 .416-.144.763-.432 1.04-.278.267-.651.4-1.12.4Zm10.347 6.512a5.304 5.304 0 0 1-2.576.64c-1.131 0-2-.256-2.608-.768-.608-.523-.912-1.35-.912-2.48v-2.704h2.496v2.544c0 .533.138.917.416 1.152.277.224.666.336 1.168.336.362 0 .709-.043 1.04-.128.341-.085.666-.208.976-.368v1.776ZM129.149 24v-8.608h2.496V24h-2.496Zm6.172 0v-8.608h2.48v3.36h3.744v-3.36h2.496V24h-2.496v-3.216h-3.744V24h-2.48Zm17.814 0v-2.864l.352.4h-2.384c-1.238 0-2.208-.256-2.912-.768-.704-.512-1.056-1.248-1.056-2.208 0-1.024.368-1.808 1.104-2.352.746-.544 1.749-.816 3.008-.816h4.112V24h-2.224Zm-6.128 0 2.288-3.28h2.544L149.663 24h-2.656Zm6.128-3.632v-3.584l.352.64h-2.192c-.512 0-.912.096-1.2.288-.278.192-.416.501-.416.928 0 .821.528 1.232 1.584 1.232h2.224l-.352.496ZM166.001 24V13.76l1.12 1.12h-3.36V12.8h4.832V24h-2.592Zm9.753-11.392c1.035 0 1.926.213 2.672.64.747.427 1.323 1.05 1.728 1.872.406.81.608 1.824.608 3.04 0 1.29-.245 2.384-.736 3.28-.48.896-1.146 1.579-2 2.048-.853.47-1.845.704-2.976.704a7.385 7.385 0 0 1-1.696-.192 4.435 4.435 0 0 1-1.408-.576l.96-1.904c.31.213.64.363.992.448.352.075.72.112 1.104.112.96 0 1.723-.293 2.288-.88.576-.587.864-1.456.864-2.608 0-.192-.005-.405-.016-.64a5.11 5.11 0 0 0-.08-.704l.704.672a2.927 2.927 0 0 1-.768 1.056 3.57 3.57 0 0 1-1.152.64 4.856 4.856 0 0 1-1.472.208 4.372 4.372 0 0 1-1.952-.432 3.574 3.574 0 0 1-1.392-1.216c-.341-.523-.512-1.136-.512-1.84 0-.768.187-1.43.56-1.984a3.763 3.763 0 0 1 1.536-1.28 4.933 4.933 0 0 1 2.144-.464Zm.16 1.936c-.373 0-.698.07-.976.208-.277.128-.496.32-.656.576-.16.245-.24.539-.24.88 0 .512.171.923.512 1.232.352.299.816.448 1.392.448.374 0 .704-.07.992-.208a1.67 1.67 0 0 0 .688-.608c.16-.256.24-.544.24-.864 0-.32-.08-.603-.24-.848a1.477 1.477 0 0 0-.656-.592c-.288-.15-.64-.224-1.056-.224Zm8.844 3.84c-.427 0-.795-.144-1.104-.432-.299-.299-.448-.677-.448-1.136 0-.459.149-.827.448-1.104a1.564 1.564 0 0 1 1.104-.432c.437 0 .805.144 1.104.432.299.277.448.645.448 1.104 0 .459-.149.837-.448 1.136a1.53 1.53 0 0 1-1.104.432Zm0 5.744c-.427 0-.795-.144-1.104-.432-.299-.299-.448-.677-.448-1.136 0-.459.149-.827.448-1.104a1.564 1.564 0 0 1 1.104-.432c.437 0 .805.144 1.104.432.299.277.448.645.448 1.104 0 .459-.149.837-.448 1.136a1.53 1.53 0 0 1-1.104.432Zm7.627.064a9.06 9.06 0 0 1-2.32-.304c-.768-.213-1.418-.512-1.952-.896l1.008-1.984c.427.31.923.555 1.488.736a5.579 5.579 0 0 0 1.712.272c.651 0 1.163-.128 1.536-.384.374-.256.56-.608.56-1.056 0-.427-.165-.763-.496-1.008-.33-.245-.864-.368-1.6-.368h-1.184v-1.712l3.12-3.536.288.928h-5.872V12.8h7.84v1.68l-3.104 3.536-1.312-.752h.752c1.376 0 2.416.31 3.12.928.704.619 1.056 1.413 1.056 2.384 0 .63-.165 1.221-.496 1.776-.33.544-.837.987-1.52 1.328-.682.341-1.557.512-2.624.512Zm11.917 0c-.917 0-1.739-.224-2.464-.672-.725-.459-1.296-1.12-1.712-1.984-.416-.864-.624-1.91-.624-3.136 0-1.227.208-2.272.624-3.136.416-.864.987-1.52 1.712-1.968.725-.459 1.547-.688 2.464-.688.928 0 1.749.23 2.464.688.725.448 1.296 1.104 1.712 1.968.416.864.624 1.91.624 3.136 0 1.227-.208 2.272-.624 3.136-.416.864-.987 1.525-1.712 1.984-.715.448-1.536.672-2.464.672Zm0-2.192c.437 0 .816-.123 1.136-.368.331-.245.587-.635.768-1.168.192-.533.288-1.221.288-2.064s-.096-1.53-.288-2.064c-.181-.533-.437-.923-.768-1.168a1.814 1.814 0 0 0-1.136-.368c-.427 0-.805.123-1.136.368-.32.245-.576.635-.768 1.168-.181.533-.272 1.221-.272 2.064s.091 1.53.272 2.064c.192.533.448.923.768 1.168.331.245.709.368 1.136.368Z"/>
</svg>
