<svg xmlns="http://www.w3.org/2000/svg" width="107" height="13" fill="none">
  <path fill="#97C3AB" d="M4.69 10.14c-1.559 0-2.921-.523-4.088-1.568L1.638 7.34c.98.85 2.011 1.274 3.094 1.274.532 0 .952-.112 1.26-.336.317-.233.476-.541.476-.924 0-.364-.15-.653-.448-.868-.299-.224-.887-.439-1.764-.644-1.139-.27-1.97-.611-2.492-1.022-.513-.42-.77-1.06-.77-1.918 0-.84.313-1.521.938-2.044C2.557.326 3.36.06 4.34.06c1.344 0 2.53.41 3.556 1.232l-.924 1.302c-.905-.672-1.792-1.008-2.66-1.008-.495 0-.887.112-1.176.336-.28.224-.42.509-.42.854 0 .383.154.681.462.896.317.205.938.42 1.862.644 1.083.261 1.876.611 2.38 1.05.513.439.77 1.055.77 1.848 0 .905-.322 1.62-.966 2.142-.644.523-1.489.784-2.534.784Zm9.543.014c-1.297 0-2.32-.369-3.066-1.106-.737-.737-1.106-1.806-1.106-3.206V.2h1.722v5.572c0 .896.22 1.587.658 2.072.439.485 1.045.728 1.82.728.775 0 1.377-.233 1.806-.7.439-.467.658-1.143.658-2.03V.2h1.722v5.558c0 1.428-.373 2.52-1.12 3.276-.747.747-1.778 1.12-3.094 1.12ZM20.811 10V.2h1.834l2.982 4.634L28.609.2h1.834V10H28.72V2.972l-3.094 4.62h-.056L22.505 3v7H20.81Zm12.252 0V.2h1.722V10h-1.722Zm4.345 0V.2h7.294v1.568H39.13v2.674h4.942V6.01H39.13V10h-1.722Zm12.688 1.974c-2.585-1.419-3.878-3.416-3.878-5.992S47.51 1.409 50.096-.01l.742 1.134c-1.008.663-1.75 1.381-2.226 2.156-.467.775-.7 1.675-.7 2.702s.233 1.927.7 2.702c.476.775 1.218 1.493 2.226 2.156l-.742 1.134Zm6.792-1.806c-1.419 0-2.604-.485-3.556-1.456-.952-.98-1.428-2.184-1.428-3.612 0-1.419.476-2.618 1.428-3.598s2.16-1.47 3.626-1.47c.85 0 1.568.13 2.156.392.598.261 1.158.64 1.68 1.134l-1.106 1.274c-.877-.812-1.792-1.218-2.744-1.218-.933 0-1.708.336-2.324 1.008-.606.672-.91 1.498-.91 2.478 0 .97.308 1.797.924 2.478.616.672 1.386 1.008 2.31 1.008.56 0 1.055-.103 1.484-.308.43-.215.873-.537 1.33-.966l1.106 1.12c-.55.579-1.134 1.013-1.75 1.302-.616.29-1.358.434-2.226.434Zm8.88 0c-1.559 0-2.81-.574-3.752-1.722l1.204-1.12c.728.859 1.587 1.288 2.576 1.288.495 0 .9-.135 1.218-.406.317-.28.476-.649.476-1.106 0-.476-.205-.845-.616-1.106-.401-.27-.947-.406-1.638-.406h-.798l-.28-1.078 2.646-2.814h-4.242V.2h6.482v1.288l-2.73 2.8c.859.121 1.554.41 2.086.868.532.448.798 1.087.798 1.918 0 .905-.322 1.647-.966 2.226-.635.579-1.456.868-2.464.868Zm5.322-5.642V2.608h1.862v1.918H71.09Zm0 5.474V8.082h1.862V10H71.09Zm8.698.168c-1.418 0-2.603-.485-3.555-1.456-.953-.98-1.428-2.184-1.428-3.612 0-1.419.475-2.618 1.427-3.598.953-.98 2.161-1.47 3.627-1.47.849 0 1.568.13 2.156.392a5.88 5.88 0 0 1 1.68 1.134l-1.106 1.274c-.878-.812-1.793-1.218-2.745-1.218-.933 0-1.707.336-2.323 1.008-.607.672-.91 1.498-.91 2.478 0 .97.307 1.797.923 2.478.616.672 1.386 1.008 2.31 1.008.56 0 1.055-.103 1.485-.308.429-.215.872-.537 1.33-.966l1.105 1.12c-.55.579-1.133 1.013-1.75 1.302-.615.29-1.358.434-2.225.434Zm7.02-.168V1.88l-1.764.49-.365-1.4 2.633-.84h1.203V10h-1.707Zm3.744 0V8.642l3.374-2.87c.69-.579 1.167-1.055 1.428-1.428a2.08 2.08 0 0 0 .406-1.218c0-.467-.15-.835-.448-1.106-.298-.28-.676-.42-1.134-.42-.43 0-.816.117-1.162.35-.336.233-.704.607-1.106 1.12l-1.218-.952c.504-.71 1.022-1.227 1.554-1.554.542-.336 1.228-.504 2.058-.504.962 0 1.74.27 2.338.812.598.541.896 1.255.896 2.142 0 .383-.046.728-.14 1.036a3.032 3.032 0 0 1-.504.924c-.233.308-.49.593-.77.854-.27.252-.648.579-1.134.98l-2.016 1.68h4.662V10h-7.084Zm8.558 2.03-.182-.714c.803-.159 1.204-.546 1.204-1.162a.346.346 0 0 0-.014-.084V10h-.714V8.082h1.862v1.624c0 .756-.177 1.316-.532 1.68-.354.373-.896.588-1.624.644Zm3.269-7.868-.182-.728c.803-.14 1.204-.527 1.204-1.162a.212.212 0 0 0-.014-.07v-.084h-.714V.2h1.862v1.638c0 .756-.177 1.32-.532 1.694-.354.364-.896.574-1.624.63Zm3.76 0-.182-.728c.803-.14 1.204-.527 1.204-1.162a.241.241 0 0 0-.014-.07v-.084h-.714V.2h1.862v1.638c0 .756-.177 1.32-.532 1.694-.355.364-.896.574-1.624.63Zm4.334 4.76v-1.61l4.998-2.226-4.998-2.24V1.222l6.678 3.094v1.512l-6.678 3.094ZM119.609 10l4.396-8.288h-4.928V.2h6.888v1.302L121.541 10h-1.932Zm11.828.168c-1.27 0-2.296-.48-3.08-1.442-.784-.97-1.176-2.18-1.176-3.626 0-1.428.396-2.627 1.19-3.598.802-.98 1.834-1.47 3.094-1.47 1.26 0 2.282.485 3.066 1.456.793.97 1.19 2.175 1.19 3.612 0 1.428-.402 2.632-1.204 3.612-.794.97-1.82 1.456-3.08 1.456Zm-1.792-2.562c.466.672 1.073 1.008 1.82 1.008.746 0 1.344-.331 1.792-.994.457-.672.686-1.512.686-2.52 0-.99-.234-1.82-.7-2.492-.467-.681-1.069-1.022-1.806-1.022-.747 0-1.349.336-1.806 1.008-.448.663-.672 1.498-.672 2.506 0 .99.228 1.825.686 2.506Zm7.253 4.424-.182-.714c.803-.159 1.204-.546 1.204-1.162a.346.346 0 0 0-.014-.084V10h-.714V8.082h1.862v1.624c0 .756-.177 1.316-.532 1.68-.354.373-.896.588-1.624.644Zm7.883-1.862c-1.27 0-2.296-.48-3.08-1.442-.784-.97-1.176-2.18-1.176-3.626 0-1.428.396-2.627 1.19-3.598.802-.98 1.834-1.47 3.094-1.47 1.26 0 2.282.485 3.066 1.456.793.97 1.19 2.175 1.19 3.612 0 1.428-.402 2.632-1.204 3.612-.794.97-1.82 1.456-3.08 1.456Zm-1.792-2.562c.466.672 1.073 1.008 1.82 1.008.746 0 1.344-.331 1.792-.994.457-.672.686-1.512.686-2.52 0-.99-.234-1.82-.7-2.492-.467-.681-1.069-1.022-1.806-1.022-.747 0-1.349.336-1.806 1.008-.448.663-.672 1.498-.672 2.506 0 .99.228 1.825.686 2.506Zm11.922 2.562c-1.269 0-2.296-.48-3.08-1.442-.784-.97-1.176-2.18-1.176-3.626 0-1.428.397-2.627 1.19-3.598.803-.98 1.834-1.47 3.094-1.47 1.26 0 2.282.485 3.066 1.456.794.97 1.19 2.175 1.19 3.612 0 1.428-.401 2.632-1.204 3.612-.793.97-1.82 1.456-3.08 1.456Zm-1.792-2.562c.467.672 1.074 1.008 1.82 1.008.747 0 1.344-.331 1.792-.994.458-.672.686-1.512.686-2.52 0-.99-.233-1.82-.7-2.492-.466-.681-1.068-1.022-1.806-1.022-.746 0-1.348.336-1.806 1.008-.448.663-.672 1.498-.672 2.506 0 .99.229 1.825.686 2.506Zm11.923 2.562c-1.269 0-2.296-.48-3.08-1.442-.784-.97-1.176-2.18-1.176-3.626 0-1.428.397-2.627 1.19-3.598.803-.98 1.834-1.47 3.094-1.47 1.26 0 2.282.485 3.066 1.456.794.97 1.19 2.175 1.19 3.612 0 1.428-.401 2.632-1.204 3.612-.793.97-1.82 1.456-3.08 1.456Zm-1.792-2.562c.467.672 1.074 1.008 1.82 1.008.747 0 1.344-.331 1.792-.994.458-.672.686-1.512.686-2.52 0-.99-.233-1.82-.7-2.492-.466-.681-1.068-1.022-1.806-1.022-.746 0-1.348.336-1.806 1.008-.448.663-.672 1.498-.672 2.506 0 .99.229 1.825.686 2.506Zm7.597-3.444-.182-.728c.803-.14 1.204-.527 1.204-1.162a.241.241 0 0 0-.014-.07v-.084h-.714V.2h1.862v1.638c0 .756-.177 1.32-.532 1.694-.355.364-.896.574-1.624.63Zm3.76 0-.182-.728c.803-.14 1.204-.527 1.204-1.162a.241.241 0 0 0-.014-.07v-.084h-.714V.2h1.862v1.638c0 .756-.177 1.32-.532 1.694-.355.364-.896.574-1.624.63Zm4.446 7.812-.742-1.134c1.008-.663 1.745-1.381 2.212-2.156.476-.775.714-1.675.714-2.702s-.238-1.927-.714-2.702c-.467-.775-1.204-1.493-2.212-2.156l.742-1.134c2.585 1.428 3.878 3.425 3.878 5.992s-1.293 4.564-3.878 5.992Z"/>
</svg>
