<svg xmlns="http://www.w3.org/2000/svg" width="238" height="36" fill="none">
  <path stroke="#0F7C41" stroke-width=".4" d="M.2.2h237.6v35.6H.2z"/>
  <path fill="#0F7C41" d="M17.904 24V12.8h8.448v1.36h-6.864v3.2h3.488c1.333 0 2.346.277 3.04.832.693.555 1.04 1.36 1.04 2.416 0 1.088-.379 1.925-1.136 2.512-.747.587-1.819.88-3.216.88h-4.8Zm1.584-1.264h3.152c.928 0 1.626-.176 2.096-.528.48-.352.72-.875.72-1.568 0-1.344-.939-2.016-2.816-2.016h-3.152v4.112Zm14.919 1.36c-.907 0-1.707-.187-2.4-.56a4.105 4.105 0 0 1-1.6-1.536c-.373-.65-.56-1.397-.56-2.24 0-.843.181-1.59.544-2.24A4 4 0 0 1 31.91 16c.65-.373 1.381-.56 2.192-.56.821 0 1.547.181 2.176.544.63.363 1.12.875 1.472 1.536.363.65.544 1.413.544 2.288 0 .064-.006.139-.016.224 0 .085-.006.165-.016.24h-7.216v-1.104h6.416l-.624.384c.01-.544-.102-1.03-.336-1.456a2.496 2.496 0 0 0-.976-.992c-.406-.245-.88-.368-1.424-.368a2.75 2.75 0 0 0-1.424.368 2.47 2.47 0 0 0-.976 1.008c-.235.427-.352.917-.352 1.472v.256c0 .565.128 1.072.384 1.52a2.77 2.77 0 0 0 1.104 1.024c.47.245 1.008.368 1.616.368.501 0 .955-.085 1.36-.256a2.98 2.98 0 0 0 1.088-.768l.848.992c-.384.448-.864.79-1.44 1.024-.566.235-1.2.352-1.904.352Zm9.843.016c-.64 0-1.27-.08-1.888-.24a5.972 5.972 0 0 1-1.632-.72l.464-1.168c.405.256.87.459 1.392.608.523.139 1.05.208 1.584.208.49 0 .912-.059 1.264-.176.363-.117.64-.277.832-.48.192-.213.288-.459.288-.736 0-.395-.176-.699-.528-.912-.352-.213-.843-.32-1.472-.32h-1.536v-1.104h1.44c.373 0 .699-.043.976-.128.278-.085.49-.213.64-.384.16-.181.24-.39.24-.624a.894.894 0 0 0-.272-.656c-.181-.181-.437-.32-.768-.416a3.976 3.976 0 0 0-1.136-.144c-.426.01-.864.07-1.312.176a6.678 6.678 0 0 0-1.344.496l-.416-1.2a8.389 8.389 0 0 1 1.504-.56 6.06 6.06 0 0 1 1.488-.224c.736-.021 1.392.064 1.968.256.576.181 1.03.448 1.36.8.341.352.512.768.512 1.248 0 .405-.128.768-.384 1.088-.256.31-.597.555-1.024.736-.427.181-.917.272-1.472.272l.064-.368c.95 0 1.696.187 2.24.56.544.373.816.88.816 1.52 0 .512-.17.965-.512 1.36-.341.384-.805.688-1.392.912-.576.213-1.237.32-1.984.32Zm11.135-.016c-.853 0-1.61-.187-2.272-.56A4.168 4.168 0 0 1 51.545 22c-.384-.661-.576-1.408-.576-2.24 0-.843.192-1.59.576-2.24A4.051 4.051 0 0 1 53.113 16c.662-.373 1.419-.56 2.272-.56.843 0 1.595.187 2.256.56.672.363 1.195.87 1.568 1.52.384.64.576 1.387.576 2.24 0 .843-.192 1.59-.576 2.24a4.02 4.02 0 0 1-1.568 1.536c-.661.373-1.413.56-2.256.56Zm0-1.344a2.87 2.87 0 0 0 1.456-.368 2.597 2.597 0 0 0 1.024-1.04c.246-.459.368-.987.368-1.584 0-.608-.122-1.13-.368-1.568a2.597 2.597 0 0 0-1.024-1.04 2.868 2.868 0 0 0-1.456-.368c-.544 0-1.029.123-1.456.368a2.74 2.74 0 0 0-1.024 1.04c-.256.437-.384.96-.384 1.568 0 .597.128 1.125.384 1.584a2.74 2.74 0 0 0 1.024 1.04c.427.245.912.368 1.456.368ZM63.283 24v-8.48h7.856V24h-1.536v-7.52l.368.384h-5.52l.368-.384V24h-1.536Zm10.7-.016.096-1.296c.075.01.144.021.208.032.064.01.123.016.176.016.342 0 .608-.117.8-.352.203-.235.352-.544.448-.928a8.9 8.9 0 0 0 .208-1.328c.043-.49.075-.981.096-1.472l.144-3.136h6.512V24h-1.536v-7.584l.368.448h-4.352l.352-.464-.112 2.352c-.032.747-.09 1.445-.176 2.096a7.925 7.925 0 0 1-.4 1.712c-.17.49-.41.875-.72 1.152-.298.277-.688.416-1.168.416-.138 0-.288-.016-.448-.048a5.693 5.693 0 0 1-.496-.096ZM92.121 24v-1.792l-.08-.336v-3.056c0-.65-.192-1.152-.576-1.504-.373-.363-.938-.544-1.696-.544-.5 0-.992.085-1.472.256a3.69 3.69 0 0 0-1.216.656l-.64-1.152c.438-.352.96-.619 1.568-.8a6.494 6.494 0 0 1 1.936-.288c1.163 0 2.06.283 2.688.848.63.565.944 1.43.944 2.592V24h-1.456Zm-2.784.096c-.629 0-1.184-.107-1.664-.32-.469-.213-.832-.507-1.088-.88a2.284 2.284 0 0 1-.384-1.296c0-.459.107-.875.32-1.248.224-.373.582-.672 1.072-.896.502-.224 1.174-.336 2.016-.336h2.688v1.104h-2.624c-.768 0-1.285.128-1.552.384a1.24 1.24 0 0 0-.4.928c0 .416.166.752.496 1.008.331.245.79.368 1.376.368.576 0 1.078-.128 1.504-.384.438-.256.752-.63.944-1.12l.304 1.056c-.202.501-.56.901-1.072 1.2-.512.288-1.157.432-1.936.432ZM99.303 24v-7.536l.384.4H96.2V15.52h7.744v1.344h-3.472l.368-.4V24h-1.536Zm7.491 0v-8.48h1.536v3.6h4.832v-3.6h1.536V24h-1.536v-3.552h-4.832V24h-1.536Zm12.171 0v-8.48h1.536v6.176l5.2-6.176h1.392V24h-1.536v-6.176L120.373 24h-1.408Zm12.389 0v-8.48h1.536v6.176l5.2-6.176h1.392V24h-1.536v-6.176L132.762 24h-1.408Zm3.968-9.584c-.779 0-1.392-.187-1.84-.56-.437-.384-.661-.933-.672-1.648h1.04c.011.405.144.725.4.96.267.235.619.352 1.056.352.437 0 .789-.117 1.056-.352s.405-.555.416-.96h1.072c-.011.715-.24 1.264-.688 1.648-.448.373-1.061.56-1.84.56ZM149.32 24v-8.48h3.936c.992 0 1.771.192 2.336.576.576.373.864.907.864 1.6 0 .693-.272 1.232-.816 1.616-.533.373-1.242.56-2.128.56l.24-.416c1.014 0 1.766.187 2.256.56.491.373.736.923.736 1.648 0 .736-.277 1.312-.832 1.728-.544.405-1.381.608-2.512.608h-4.08Zm1.504-1.184h2.464c.64 0 1.12-.096 1.44-.288.32-.203.48-.523.48-.96 0-.448-.149-.773-.448-.976-.288-.213-.746-.32-1.376-.32h-2.56v2.544Zm0-3.648h2.304c.587 0 1.03-.107 1.328-.32.31-.224.464-.533.464-.928 0-.405-.154-.71-.464-.912-.298-.203-.741-.304-1.328-.304h-2.304v2.464Zm13.38 4.928c-.906 0-1.706-.187-2.4-.56a4.11 4.11 0 0 1-1.6-1.536c-.373-.65-.56-1.397-.56-2.24 0-.843.182-1.59.544-2.24.374-.65.88-1.157 1.52-1.52.651-.373 1.382-.56 2.192-.56.822 0 1.547.181 2.176.544a3.78 3.78 0 0 1 1.472 1.536c.363.65.544 1.413.544 2.288 0 .064-.005.139-.016.224 0 .085-.005.165-.016.24h-7.216v-1.104h6.416l-.624.384c.011-.544-.101-1.03-.336-1.456a2.491 2.491 0 0 0-.976-.992c-.405-.245-.88-.368-1.424-.368-.533 0-1.008.123-1.424.368a2.47 2.47 0 0 0-.976 1.008c-.234.427-.352.917-.352 1.472v.256c0 .565.128 1.072.384 1.52a2.77 2.77 0 0 0 1.104 1.024c.47.245 1.008.368 1.616.368.502 0 .955-.085 1.36-.256.416-.17.779-.427 1.088-.768l.848.992c-.384.448-.864.79-1.44 1.024-.565.235-1.2.352-1.904.352Zm11.471.032c-.704 0-1.328-.112-1.872-.336a3.736 3.736 0 0 1-1.376-.992c-.384-.448-.677-1.008-.88-1.68-.192-.683-.288-1.483-.288-2.4 0-.725.064-1.376.192-1.952.128-.576.31-1.088.544-1.536.246-.448.544-.837.896-1.168.363-.33.768-.603 1.216-.816a6.56 6.56 0 0 1 1.504-.512l3.872-.864.224 1.424-3.568.768c-.213.043-.469.107-.768.192a3.988 3.988 0 0 0-.912.4c-.309.17-.597.41-.864.72-.266.31-.48.715-.64 1.216-.16.49-.24 1.099-.24 1.824 0 .203.006.357.016.464l.032.32c.022.107.038.267.048.48l-.64-.656a4.104 4.104 0 0 1 .816-1.536 3.797 3.797 0 0 1 1.344-1.008 4.126 4.126 0 0 1 1.744-.368c.79 0 1.488.17 2.096.512.619.341 1.104.81 1.456 1.408.352.597.528 1.28.528 2.048 0 .779-.186 1.477-.56 2.096-.362.608-.88 1.088-1.552 1.44-.672.341-1.461.512-2.368.512Zm.144-1.28c.544 0 1.024-.117 1.44-.352.416-.245.742-.57.976-.976a2.78 2.78 0 0 0 .352-1.392c0-.512-.117-.965-.352-1.36a2.473 2.473 0 0 0-.976-.928c-.416-.235-.906-.352-1.472-.352-.533 0-1.013.112-1.44.336a2.352 2.352 0 0 0-.992.912c-.234.384-.352.832-.352 1.344 0 .512.118.981.352 1.408.246.416.576.747.992.992.427.245.918.368 1.472.368Zm7.81 1.152v-8.48h1.536V24h-1.536Zm.768-10.112c-.299 0-.549-.096-.752-.288a.958.958 0 0 1-.288-.704c0-.288.096-.528.288-.72.203-.192.453-.288.752-.288s.544.096.736.288a.88.88 0 0 1 .304.688c0 .288-.096.533-.288.736-.192.192-.443.288-.752.288ZM189.44 24v-8.48h1.536v3.6h4.832v-3.6h1.536V24h-1.536v-3.552h-4.832V24h-1.536Zm17.371 0v-1.792l-.08-.336v-3.056c0-.65-.192-1.152-.576-1.504-.374-.363-.939-.544-1.696-.544a4.36 4.36 0 0 0-1.472.256 3.68 3.68 0 0 0-1.216.656l-.64-1.152c.437-.352.96-.619 1.568-.8a6.49 6.49 0 0 1 1.936-.288c1.162 0 2.058.283 2.688.848.629.565.944 1.43.944 2.592V24h-1.456Zm-2.784.096c-.63 0-1.184-.107-1.664-.32-.47-.213-.832-.507-1.088-.88a2.284 2.284 0 0 1-.384-1.296c0-.459.106-.875.32-1.248.224-.373.581-.672 1.072-.896.501-.224 1.173-.336 2.016-.336h2.688v1.104h-2.624c-.768 0-1.286.128-1.552.384-.267.256-.4.565-.4.928 0 .416.165.752.496 1.008.33.245.789.368 1.376.368.576 0 1.077-.128 1.504-.384.437-.256.752-.63.944-1.12l.304 1.056c-.203.501-.56.901-1.072 1.2-.512.288-1.158.432-1.936.432Zm12.782 0c-.704 0-1.35-.16-1.936-.48-.576-.33-1.04-.816-1.392-1.456-.342-.64-.512-1.44-.512-2.4s.165-1.76.496-2.4c.341-.64.8-1.12 1.376-1.44.586-.32 1.242-.48 1.968-.48.832 0 1.568.181 2.208.544.64.363 1.146.87 1.52 1.52.373.64.56 1.392.56 2.256 0 .864-.187 1.621-.56 2.272a4.005 4.005 0 0 1-1.52 1.52c-.64.363-1.376.544-2.208.544Zm-4.496 3.008V15.52h1.472v2.288l-.096 1.968.16 1.968v5.36h-1.536Zm4.368-4.352a2.87 2.87 0 0 0 1.456-.368 2.603 2.603 0 0 0 1.024-1.04c.256-.459.384-.987.384-1.584 0-.608-.128-1.13-.384-1.568a2.603 2.603 0 0 0-1.024-1.04 2.87 2.87 0 0 0-1.456-.368c-.534 0-1.019.123-1.456.368a2.738 2.738 0 0 0-1.024 1.04c-.246.437-.368.96-.368 1.568 0 .597.122 1.125.368 1.584.256.448.597.795 1.024 1.04.437.245.922.368 1.456.368Z"/>
</svg>
